<svg viewBox="0 0 1132 804" width="1132" xmlns="http://www.w3.org/2000/svg" xmlns:xlink="http://www.w3.org/1999/xlink" height="804" xmlns:ev="http://www.w3.org/2001/xml-events"><defs/><g transform="translate(5.5,5.5)" id="page2"><rect y="0" x="0" width="1123" height="794" fill="#ffffff"/><g transform="translate(453.000000,227.000000)" id="group1"><g transform="translate(0.000000,256.000000)" id="shape2"><path fill-rule="nonzero" stroke="#000000" d="M.0,.0L265.0,.0L265.0,32.0L.0,32.0L.0,.0z" stroke-width="1" fill="#000000"/><text xml:space="preserve" style="fill:#ffffff;font-family:Calibri;font-size:9.00pt"><tspan y="20.0" x="27.5">MM_VARIABLE_COMMUNICATE_PAYLOAD</tspan></text></g><g id="group3"><g transform="translate(0.000000,128.000000)" id="group4"><g transform="translate(0.000000,64.000000)" id="shape5"><path fill-rule="nonzero" stroke="#000000" d="M.0,.0L265.0,.0L265.0,32.0L.0,32.0L.0,.0z" stroke-width="1" fill="#ffffff"/><text xml:space="preserve" style="fill:#303030;font-family:Calibri;font-size:9.00pt"><tspan y="20.0" x="8.0">ReturnStatus</tspan></text></g><g transform="translate(0.000000,32.000000)" id="shape6"><path fill-rule="nonzero" stroke="#000000" d="M.0,.0L265.0,.0L265.0,32.0L.0,32.0L.0,.0z" stroke-width="1" fill="#ffffff"/><text xml:space="preserve" style="fill:#303030;font-family:Calibri;font-size:9.00pt"><tspan y="20.0" x="8.0">Function</tspan></text></g><g transform="translate(0.000000,96.000000)" id="shape7"><path fill-rule="nonzero" stroke="#000000" d="M.0,.0L265.0,.0L265.0,32.0L.0,32.0L.0,.0z" stroke-width="1" fill="#ffffff"/><text xml:space="preserve" style="fill:#303030;font-family:Calibri;font-size:9.00pt"><tspan y="20.0" x="8.0">Data[1]</tspan></text></g><g id="shape8"><path fill-rule="nonzero" stroke="#000000" d="M.0,.0L265.0,.0L265.0,32.0L.0,32.0L.0,.0z" stroke-width="1" fill="#000000"/><text xml:space="preserve" style="fill:#ffffff;font-family:Calibri;font-size:9.00pt"><tspan y="20.0" x="26.0">SMM_VARIABLE_COMMUNICATE_HEADER</tspan></text></g></g><g id="group9"><g transform="translate(0.000000,64.000000)" id="shape10"><path fill-rule="nonzero" stroke="#000000" d="M.0,.0L265.0,.0L265.0,32.0L.0,32.0L.0,.0z" stroke-width="1" fill="#ffffff"/><text xml:space="preserve" style="fill:#303030;font-family:Calibri;font-size:9.00pt"><tspan y="20.0" x="8.0">MessageLength</tspan></text></g><g transform="translate(0.000000,32.000000)" id="shape11"><path fill-rule="nonzero" stroke="#000000" d="M.0,.0L265.0,.0L265.0,32.0L.0,32.0L.0,.0z" stroke-width="1" fill="#ffffff"/><text xml:space="preserve" style="fill:#303030;font-family:Calibri;font-size:9.00pt"><tspan y="20.0" x="8.0">HeaderGuid</tspan></text></g><g transform="translate(0.000000,96.000000)" id="shape12"><path fill-rule="nonzero" stroke="#000000" d="M.0,.0L265.0,.0L265.0,32.0L.0,32.0L.0,.0z" stroke-width="1" fill="#ffffff"/><text xml:space="preserve" style="fill:#303030;font-family:Calibri;font-size:9.00pt"><tspan y="20.0" x="8.0">Data[1]</tspan></text></g><g id="shape13"><path fill-rule="nonzero" stroke="#000000" d="M.0,.0L265.0,.0L265.0,32.0L.0,32.0L.0,.0z" stroke-width="1" fill="#000000"/><text xml:space="preserve" style="fill:#ffffff;font-family:Calibri;font-size:9.00pt"><tspan y="20.0" x="45.5">EFI_MM_COMMUNICATE_HEADER</tspan></text></g></g></g></g></g></svg>