<svg viewBox="0 0 1132 804" width="1132" xmlns="http://www.w3.org/2000/svg" xmlns:xlink="http://www.w3.org/1999/xlink" height="804" xmlns:ev="http://www.w3.org/2001/xml-events"><defs/><g transform="translate(5.5,5.5)" id="page1"><rect y="0" x="0" width="1123" height="794" fill="#ffffff"/><g transform="translate(113.000000,265.000000)" id="group1"><g transform="translate(189.000000,48.000000)" id="shape2"><path stroke="#191919" stroke-width="1" d="M.0,.0L37.8,.0L37.8,-32.0L69.5,-32.0" fill="none"/><path stroke="#191919" stroke-linecap="round" stroke-width="1" d="M69.5,-35.0L75.5,-32.0L69.5,-29.0L69.5,-35.0" fill="#191919"/></g><g transform="translate(415.500000,48.000000)" id="shape3"><path stroke="#191919" stroke-width="1" d="M.0,.0L37.8,.0L37.8,-32.0L70.0,-32.0" fill="none"/><path stroke="#191919" stroke-linecap="round" stroke-width="1" d="M70.0,-35.0L76.0,-32.0L70.0,-29.0L70.0,-35.0" fill="#191919"/></g><g transform="translate(662.760000,50.848000)" id="shape4"><path stroke="#191919" stroke-width="1" d="M.0,.0L36.0,.0L36.0,-34.8L70.0,-34.8" fill="none"/><path stroke="#191919" stroke-linecap="round" stroke-width="1" d="M70.0,-37.8L76.0,-34.8L70.0,-31.8L70.0,-37.8" fill="#191919"/></g><g transform="translate(738.760000,0.000000)" id="group5"><g transform="translate(0.000000,64.000000)" id="shape6"><path fill-rule="nonzero" stroke="#00b0f0" d="M.0,.0L150.2,.0L150.2,32.0L.0,32.0L.0,.0z" stroke-width="1" fill="#000000"/><text xml:space="preserve" style="fill:#ffff00;font-family:Calibri;font-size:9.00pt"><tspan y="20.0" x="62.1">Data</tspan></text></g><g transform="translate(0.000000,32.000000)" id="shape7"><path fill-rule="nonzero" stroke="#00b0f0" d="M.0,.0L150.2,.0L150.2,32.0L.0,32.0L.0,.0z" stroke-width="1" fill="#000000"/><text xml:space="preserve" style="fill:#ffff00;font-family:Calibri;font-size:9.00pt"><tspan y="20.0" x="59.1">Name</tspan></text></g><g id="shape8"><path fill-rule="nonzero" stroke="#00b0f0" d="M.0,.0L150.2,.0L150.2,32.0L.0,32.0L.0,.0z" stroke-width="1" fill="#000000"/><text xml:space="preserve" style="fill:#ffff00;font-family:Calibri;font-size:9.00pt"><tspan y="20.0" x="26.6">VARIABLE_HEADER</tspan></text></g></g><g transform="translate(0.000000,32.000000)" id="shape9"><path fill-rule="nonzero" stroke="#000000" d="M.0,.0L189.0,.0L189.0,32.0L.0,32.0L.0,.0z" stroke-width="1" fill="#ffffff"/><text xml:space="preserve" style="fill:#303030;font-family:Calibri;font-size:9.00pt"><tspan y="20.0" x="53.0">VariableGlobal</tspan></text></g><g id="shape10"><path fill-rule="nonzero" stroke="#000000" d="M.0,.0L189.0,.0L189.0,32.0L.0,32.0L.0,.0z" stroke-width="1" fill="#000000"/><text xml:space="preserve" style="fill:#ffffff;font-family:Calibri;font-size:9.00pt"><tspan y="20.0" x="21.5">VARIABLE_MODULE_GLOBAL</tspan></text></g><g transform="translate(491.500000,0.000000)" id="group11"><g transform="translate(0.000000,192.000000)" id="shape12"><path fill-rule="nonzero" stroke="#00b0f0" d="M.0,.0L171.3,.0L171.3,32.0L.0,32.0L.0,.0z" stroke-width="1" fill="#000000"/><text xml:space="preserve" style="fill:#ffff00;font-family:Calibri;font-size:9.00pt"><tspan y="20.0" x="57.6">VARIABLEn</tspan></text></g><g transform="translate(0.000000,64.000000)" id="shape13"><path fill-rule="nonzero" stroke="#00b0f0" d="M.0,.0L171.3,.0L171.3,32.0L.0,32.0L.0,.0z" stroke-width="1" fill="#000000"/><text xml:space="preserve" style="fill:#ffff00;font-family:Calibri;font-size:9.00pt"><tspan y="20.0" x="58.1">VARIABLE1</tspan></text></g><g transform="translate(0.000000,32.000000)" id="shape14"><path fill-rule="nonzero" stroke="#00b0f0" d="M.0,.0L171.3,.0L171.3,32.0L.0,32.0L.0,.0z" stroke-width="1" fill="#000000"/><text xml:space="preserve" style="fill:#ffff00;font-family:Calibri;font-size:9.00pt"><tspan y="20.0" x="58.1">VARIABLE0</tspan></text></g><g transform="translate(0.000000,128.000000)" id="shape15"><path fill-rule="nonzero" stroke="#00b0f0" d="M.0,.0L171.3,.0L171.3,32.0L.0,32.0L.0,.0z" stroke-width="1" fill="#000000"/><text xml:space="preserve" style="fill:#ffff00;font-family:Calibri;font-size:9.00pt"><tspan y="20.0" x="81.1">...</tspan></text></g><g transform="translate(0.000000,96.000000)" id="shape16"><path fill-rule="nonzero" stroke="#00b0f0" d="M.0,.0L171.3,.0L171.3,32.0L.0,32.0L.0,.0z" stroke-width="1" fill="#000000"/><text xml:space="preserve" style="fill:#ffff00;font-family:Calibri;font-size:9.00pt"><tspan y="20.0" x="81.1">...</tspan></text></g><g transform="translate(0.000000,0.000000)" id="shape17"><path fill-rule="nonzero" stroke="#00b0f0" d="M.0,.0L171.3,.0L171.3,32.0L.0,32.0L.0,.0z" stroke-width="1" fill="#000000"/><text xml:space="preserve" style="fill:#ffff00;font-family:Calibri;font-size:9.00pt"><tspan y="20.0" x="17.6">VARIABLE_STORE_HEADER</tspan></text></g><g transform="translate(0.000000,160.000000)" id="shape18"><path fill-rule="nonzero" stroke="#00b0f0" d="M.0,.0L171.3,.0L171.3,32.0L.0,32.0L.0,.0z" stroke-width="1" fill="#000000"/><text xml:space="preserve" style="fill:#ffff00;font-family:Calibri;font-size:9.00pt"><tspan y="20.0" x="81.1">...</tspan></text></g></g><g transform="translate(264.500000,0.000000)" id="group19"><g transform="translate(0.000000,32.000000)" id="shape20"><path fill-rule="nonzero" stroke="#000000" d="M.0,.0L151.0,.0L151.0,32.0L.0,32.0L.0,.0z" stroke-width="1" fill="#ffffff"/><text xml:space="preserve" style="fill:#303030;font-family:Calibri;font-size:9.00pt"><tspan y="20.0" x="32.0">[*]VariableBase</tspan></text></g><g id="shape21"><path fill-rule="nonzero" stroke="#000000" d="M.0,.0L151.0,.0L151.0,32.0L.0,32.0L.0,.0z" stroke-width="1" fill="#000000"/><text xml:space="preserve" style="fill:#ffffff;font-family:Calibri;font-size:9.00pt"><tspan y="20.0" x="28.0">VARIABLE_GLOBAL</tspan></text></g></g><g transform="translate(738.760000,128.000000)" id="group22"><g transform="translate(0.000000,64.000000)" id="shape23"><path fill-rule="nonzero" stroke="#00b0f0" d="M.0,.0L150.2,.0L150.2,32.0L.0,32.0L.0,.0z" stroke-width="1" fill="#000000"/><text xml:space="preserve" style="fill:#ffff00;font-family:Calibri;font-size:9.00pt"><tspan y="20.0" x="62.1">Data</tspan></text></g><g transform="translate(0.000000,32.000000)" id="shape24"><path fill-rule="nonzero" stroke="#00b0f0" d="M.0,.0L150.2,.0L150.2,32.0L.0,32.0L.0,.0z" stroke-width="1" fill="#000000"/><text xml:space="preserve" style="fill:#ffff00;font-family:Calibri;font-size:9.00pt"><tspan y="20.0" x="59.1">Name</tspan></text></g><g id="shape25"><path fill-rule="nonzero" stroke="#00b0f0" d="M.0,.0L150.2,.0L150.2,32.0L.0,32.0L.0,.0z" stroke-width="1" fill="#000000"/><text xml:space="preserve" style="fill:#ffff00;font-family:Calibri;font-size:9.00pt"><tspan y="20.0" x="26.6">VARIABLE_HEADER</tspan></text></g></g><g transform="translate(662.760000,176.000000)" id="shape26"><path stroke="#191919" stroke-width="1" d="M.0,.0L48.0,.0L48.0,-32.0L70.0,-32.0" fill="none"/><path stroke="#191919" stroke-linecap="round" stroke-width="1" d="M70.0,-35.0L76.0,-32.0L70.0,-29.0L70.0,-35.0" fill="#191919"/></g></g></g></svg>